SplineFontDB: 3.0
FontName: Techna-Regular
FullName: Techna Regular
FamilyName: Techna
Weight: Regular
Copyright: Copyright (c) 2019, Carl Enlund
UComments: "2019-5-11: Created with FontForge (http://fontforge.org)"
Version: 001.000
ItalicAngle: 0
UnderlinePosition: -100
UnderlineWidth: 50
Ascent: 800
Descent: 200
InvalidEm: 0
LayerCount: 2
Layer: 0 0 "Back" 1
Layer: 1 0 "Fore" 0
XUID: [1021 637 837473831 1446149]
FSType: 0
OS2Version: 0
OS2_WeightWidthSlopeOnly: 0
OS2_UseTypoMetrics: 1
CreationTime: 1557605594
ModificationTime: 1558043478
PfmFamily: 17
TTFWeight: 400
TTFWidth: 5
LineGap: 90
VLineGap: 0
OS2TypoAscent: 0
OS2TypoAOffset: 1
OS2TypoDescent: 0
OS2TypoDOffset: 1
OS2TypoLinegap: 0
OS2WinAscent: 0
OS2WinAOffset: 1
OS2WinDescent: 0
OS2WinDOffset: 1
HheadAscent: 0
HheadAOffset: 1
HheadDescent: 0
HheadDOffset: 1
OS2Vendor: 'PfEd'
MarkAttachClasses: 1
DEI: 91125
LangName: 1033
Encoding: ISO8859-1
UnicodeInterp: none
NameList: AGL For New Fonts
DisplaySize: -72
AntiAlias: 1
FitToEm: 0
WinInfo: 0 26 9
BeginPrivate: 0
EndPrivate
Grid
-976 -155 m 0
 2024 -155 l 1024
-1021.83337402 1300 m 0
 -1021.83337402 -700 l 1024
-1000 503 m 0
 2000 503 l 1024
-1000 413.916992188 m 0
 2000 413.916992188 l 1024
-1000 688 m 0
 2000 688 l 1024
EndSplineSet
BeginChars: 256 55

StartChar: D
Encoding: 68 68 0
Width: 696
VWidth: 0
Flags: HW
LayerCount: 2
Fore
SplineSet
327 121 m 1
 327 0 l 1
 142 0 l 1
 142 121 l 1
 327 121 l 1
337 688 m 1
 331 567 l 1
 142 567 l 1
 142 688 l 1
 337 688 l 1
60 0 m 1
 60 688 l 1
 194 688 l 1
 194 0 l 1
 60 0 l 1
337 688 m 1
 559.499023438 688 676 540.865234375 676 348 c 3
 676 150.017578125 556.061523438 0 327 0 c 1
 327 121 l 1
 472.947265625 121 544 221.337890625 544 346 c 3
 544 468.446289062 474.256835938 567 331 567 c 1
 337 688 l 1
EndSplineSet
EndChar

StartChar: E
Encoding: 69 69 1
Width: 556
VWidth: 0
Flags: HW
LayerCount: 2
Fore
SplineSet
125 412.916992188 m 1
 453 412.916992188 l 1
 422 293 l 1
 124 292.916992188 l 1
 125 412.916992188 l 1
125 124 m 1
 526 124 l 1
 559 0 l 1
 125 0 l 1
 125 124 l 1
125 688 m 1
 523 688 l 1
 491 564 l 1
 125 564 l 1
 125 688 l 1
60 0 m 1
 60 688 l 1
 194 688 l 1
 194 0 l 1
 60 0 l 1
EndSplineSet
EndChar

StartChar: C
Encoding: 67 67 2
Width: 620
VWidth: 0
Flags: HW
LayerCount: 2
Fore
SplineSet
567 547 m 5
 544.413085938 552.5 490 569 413 569 c 7
 303.342773438 569 153 520.896484375 153 345 c 3
 153 179.712890625 290.006835938 113 421 113 c 3
 482.186523438 113 555.801757812 128.141601562 595 146 c 1
 595 18 l 1
 561.663085938 4.037109375 495.549804688 -11 413 -11 c 3
 237.42578125 -11 20 72.3076171875 20 339 c 3
 20 629.174804688 263.901367188 697 432 697 c 7
 509.828125 697 572.318359375 683.10546875 600 675 c 5
 567 547 l 5
EndSplineSet
EndChar

StartChar: G
Encoding: 71 71 3
Width: 704
VWidth: 0
Flags: HW
LayerCount: 2
Fore
SplineSet
598 541 m 1
 571.880859375 548 509 568 420 568 c 3
 302.322265625 568 153 523 153 345 c 3
 153 179.712890625 282.12890625 113 429 113 c 7
 494.063476562 113 555.243164062 132.0234375 597 160 c 5
 646 33 l 5
 604.4765625 11.4677734375 518 -11 421 -11 c 7
 230.880859375 -11 20 72.7607421875 20 339 c 3
 20 630 263.224609375 697 431 697 c 3
 529.05859375 697 597.990234375 680 631 670 c 1
 598 541 l 1
518 33 m 5
 518 354 l 1
 646 354 l 1
 646 33 l 5
 518 33 l 5
358 404 m 1
 646 404 l 1
 646 285 l 1
 327 285 l 1
 358 404 l 1
EndSplineSet
EndChar

StartChar: T
Encoding: 84 84 4
Width: 574
VWidth: 0
Flags: HW
LayerCount: 2
Fore
SplineSet
571 688 m 1
 571 564 l 1
 -4 564 l 1
 28 688 l 1
 571 688 l 1
227 0 m 1
 227 639 l 1
 361 639 l 1
 361 0 l 1
 227 0 l 1
EndSplineSet
EndChar

StartChar: H
Encoding: 72 72 5
Width: 661
VWidth: 0
Flags: HW
LayerCount: 2
Fore
SplineSet
121 413.916992188 m 1
 649 413.916992188 l 1
 626 291 l 5
 121 290.916992188 l 1
 121 413.916992188 l 1
436 0 m 1
 436 688 l 1
 570 688 l 1
 570 0 l 1
 436 0 l 1
60 0 m 1
 60 688 l 1
 194 688 l 1
 194 0 l 1
 60 0 l 1
EndSplineSet
EndChar

StartChar: N
Encoding: 78 78 6
Width: 641
VWidth: 0
Flags: HW
LayerCount: 2
Fore
SplineSet
100 652 m 1
 186 688 l 1
 214 688 l 5
 552 36 l 1
 467 0 l 1
 439 0 l 1
 100 652 l 1
447 0 m 1
 447 688 l 1
 581 688 l 1
 581 0 l 1
 447 0 l 1
60 0 m 1
 60 688 l 1
 194 688 l 1
 194 0 l 1
 60 0 l 1
EndSplineSet
EndChar

StartChar: A
Encoding: 65 65 7
Width: 632
VWidth: 0
Flags: HW
LayerCount: 2
Back
SplineSet
842 403.916992188 m 5
 1333 403.916992188 l 5
 1303 285.916992188 l 5
 842 285.916992188 l 5
 842 403.916992188 l 5
1106 0 m 5
 1106 688 l 5
 1240 688 l 5
 1240 0 l 5
 1106 0 l 5
842 688 m 5
 1161 688 l 5
 1161 566 l 5
 842 566 l 5
 842 688 l 5
761 0 m 5
 761 688 l 5
 895 688 l 5
 895 0 l 5
 761 0 l 5
EndSplineSet
Fore
SplineSet
459 0 m 5
 297 688 l 5
 432 688 l 5
 595 0 l 5
 459 0 l 5
186 688 m 5
 423 688 l 5
 423 566 l 5
 184 566 l 5
 186 688 l 5
10 0 m 5
 173 688 l 5
 306 688 l 5
 144 0 l 5
 10 0 l 5
124 298.916992188 m 5
 622 298.916992188 l 5
 600 180.916992188 l 5
 124 180.916992188 l 5
 124 298.916992188 l 5
EndSplineSet
EndChar

StartChar: B
Encoding: 66 66 8
Width: 590
VWidth: 0
Flags: HW
LayerCount: 2
Fore
SplineSet
332 118 m 1
 344 0 l 1
 142 0 l 1
 142 118 l 1
 332 118 l 1
381 406 m 1
 381 292 l 1
 142 292 l 1
 142 406 l 1
 381 406 l 1
332 384 m 1
 473.239257812 384 560 304.771484375 560 192 c 3
 560 85 482.796875 0 344 0 c 1
 332 118 l 1
 393.875976562 118 424 157.243164062 424 206 c 3
 424 253.6484375 393.875976562 292 332 292 c 1
 332 384 l 1
337 688 m 1
 323 568 l 1
 142 568 l 1
 142 688 l 1
 337 688 l 1
60 0 m 1
 60 688 l 1
 194 688 l 1
 194 0 l 1
 60 0 l 1
337 688 m 1
 471.01953125 688 540 605.661132812 540 511 c 3
 540 404.279296875 460.633789062 331 323 331 c 1
 323 406 l 1
 376.823242188 406 406 442.567382812 406 488 c 3
 406 532.32421875 376.823242188 568 323 568 c 1
 337 688 l 1
EndSplineSet
EndChar

StartChar: F
Encoding: 70 70 9
Width: 525
VWidth: 0
Flags: HW
LayerCount: 2
Fore
SplineSet
125 406.916992188 m 1
 451 406.916992188 l 1
 419 286 l 1
 125 286 l 1
 125 406.916992188 l 1
  Spiro
    125 406.917 v
    451 406.917 v
    419 286 v
    125 286 v
    0 0 z
  EndSpiro
125 688 m 1
 525 688 l 1
 492 564 l 1
 125 564 l 1
 125 688 l 1
  Spiro
    125 688 v
    525 688 v
    492 564 v
    125 564 v
    0 0 z
  EndSpiro
60 0 m 1
 60 688 l 1
 194 688 l 1
 194 0 l 1
 60 0 l 1
  Spiro
    60 0 v
    60 688 v
    194 688 v
    194 0 v
    0 0 z
  EndSpiro
EndSplineSet
EndChar

StartChar: I
Encoding: 73 73 10
Width: 264
VWidth: 0
Flags: HW
LayerCount: 2
Fore
SplineSet
65 0 m 1
 65 688 l 1
 199 688 l 1
 199 0 l 1
 65 0 l 1
EndSplineSet
EndChar

StartChar: L
Encoding: 76 76 11
Width: 526
VWidth: 0
Flags: HW
LayerCount: 2
Fore
SplineSet
60 0 m 1
 60 688 l 1
 194 688 l 1
 194 0 l 1
 60 0 l 1
125 0 m 1
 125 124 l 1
 526 124 l 5
 495 0 l 5
 125 0 l 1
EndSplineSet
EndChar

StartChar: M
Encoding: 77 77 12
Width: 751
VWidth: 0
Flags: HW
LayerCount: 2
Fore
SplineSet
557 0 m 1
 557 688 l 1
 691 688 l 1
 691 0 l 1
 557 0 l 1
327 270 m 1
 327 332 l 1
 533 688 l 1
 650 688 l 1
 430 270 l 1
 327 270 l 1
323 270 m 1
 99 688 l 5
 220 688 l 1
 428 334 l 1
 428 270 l 1
 323 270 l 1
60 0 m 1
 60 688 l 1
 194 688 l 1
 194 0 l 1
 60 0 l 1
EndSplineSet
EndChar

StartChar: O
Encoding: 79 79 13
Width: 788
VWidth: 0
Flags: HW
LayerCount: 2
Fore
SplineSet
394 706 m 7
 638.69140625 706 768 538.622070312 768 346 c 3
 768 151.155273438 638.69140625 -18 394 -18 c 3
 149.30859375 -18 20 151.155273438 20 346 c 3
 20 538.622070312 149.30859375 706 394 706 c 7
394 586 m 7
 235.303710938 586 152 470.033203125 152 346 c 3
 152 219.899414062 235.303710938 102 394 102 c 3
 552.696289062 102 636 219.899414062 636 346 c 3
 636 470.033203125 552.696289062 586 394 586 c 7
EndSplineSet
EndChar

StartChar: P
Encoding: 80 80 14
Width: 561
VWidth: 0
Flags: HW
LayerCount: 2
Fore
SplineSet
322 395 m 1
 325 275 l 1
 142 275 l 1
 142 395 l 1
 322 395 l 1
331 688 m 1
 322 566 l 1
 142 566 l 1
 142 688 l 1
 331 688 l 1
60 0 m 1
 60 688 l 1
 194 688 l 1
 194 0 l 1
 60 0 l 1
331 688 m 1
 473.13671875 688 546 599.719726562 546 484 c 3
 546 365.096679688 471.07421875 275 325 275 c 1
 322 395 l 1
 382.95703125 395 411 432.908203125 411 482 c 3
 411 528.541015625 382.95703125 566 322 566 c 1
 331 688 l 1
EndSplineSet
EndChar

StartChar: Q
Encoding: 81 81 15
Width: 778
VWidth: 0
Flags: HW
LayerCount: 2
Fore
SplineSet
652 -61 m 1
 345 227 l 1
 428 313 l 1
 735 25 l 1
 652 -61 l 1
EndSplineSet
Refer: 13 79 N 1 0 0 1 -5 0 2
EndChar

StartChar: R
Encoding: 82 82 16
Width: 576
VWidth: 0
Flags: HW
LayerCount: 2
Fore
SplineSet
322 395 m 1
 325 280 l 1
 142 280 l 1
 142 395 l 1
 322 395 l 1
333 688 m 1
 322 566 l 1
 142 566 l 1
 142 688 l 1
 333 688 l 1
60 0 m 1
 60 688 l 1
 194 688 l 1
 194 0 l 1
 60 0 l 1
333 688 m 1
 471.786132812 688 546 599.8828125 546 491 c 3
 546 370.096679688 474.07421875 280 325 280 c 1
 322 395 l 1
 382.95703125 395 411 432.908203125 411 482 c 3
 411 528.541015625 382.95703125 566 322 566 c 1
 333 688 l 1
403 0 m 5
 251 328 l 5
 399 328 l 1
 551 0 l 1
 403 0 l 5
EndSplineSet
EndChar

StartChar: U
Encoding: 85 85 17
Width: 620
VWidth: 0
Flags: HW
LayerCount: 2
Fore
SplineSet
192 236 m 2
 192 153.771484375 231.173828125 107 310 107 c 3
 388.826171875 107 428 153.771484375 428 236 c 2
 428 688 l 1
 562 688 l 1
 562 223 l 2
 562 73.69921875 474.872070312 -17 310 -17 c 3
 145.127929688 -17 58 73.69921875 58 223 c 2
 58 688 l 1
 192 688 l 1
 192 236 l 2
EndSplineSet
EndChar

StartChar: V
Encoding: 86 86 18
Width: 581
VWidth: 0
Flags: HW
LayerCount: 2
Fore
SplineSet
254 0 m 5
 433 688 l 5
 571 688 l 5
 383 0 l 5
 254 0 l 5
198 0 m 5
 10 688 l 5
 152 688 l 5
 331 0 l 5
 198 0 l 5
EndSplineSet
EndChar

StartChar: Z
Encoding: 90 90 19
Width: 550
VWidth: 0
Flags: HW
LayerCount: 2
Fore
SplineSet
21 20 m 1
 103 121 l 1
 550 121 l 1
 517 0 l 1
 21 0 l 1
 21 20 l 1
525 668 m 1
 442 567 l 1
 17 567 l 1
 50 688 l 1
 525 688 l 1
 525 668 l 1
21 20 m 1
 371 654 l 1
 525 668 l 1
 175 36 l 1
 21 20 l 1
EndSplineSet
EndChar

StartChar: W
Encoding: 87 87 21
Width: 855
VWidth: 0
Flags: HW
LayerCount: 2
Fore
SplineSet
585 0 m 1
 695 688 l 1
 830 688 l 1
 712 0 l 1
 585 0 l 1
552 0 m 1
 378 688 l 1
 496 688 l 1
 666 0 l 1
 552 0 l 1
193 0 m 5
 363 688 l 1
 475 688 l 1
 301 0 l 5
 193 0 l 5
143 0 m 5
 25 688 l 1
 164 688 l 1
 274 0 l 5
 143 0 l 5
EndSplineSet
EndChar

StartChar: Y
Encoding: 89 89 22
Width: 565
VWidth: 0
Flags: HW
LayerCount: 2
Fore
SplineSet
216 0 m 1
 216 329 l 1
 350 329 l 1
 350 0 l 1
 216 0 l 1
219 255 m 1
 426 688 l 1
 570 688 l 1
 346 245 l 1
 219 255 l 1
218 244 m 1
 -5 688 l 1
 143 688 l 1
 350 258 l 1
 218 244 l 1
EndSplineSet
EndChar

StartChar: X
Encoding: 88 88 23
Width: 588
VWidth: 0
Flags: HW
LayerCount: 2
Back
SplineSet
145 0 m 5
 -4 0 l 5
 427 688 l 5
 575 688 l 5
 145 0 l 5
435 0 m 5
 13 688 l 5
 167 688 l 5
 588 0 l 5
 435 0 l 5
EndSplineSet
Fore
SplineSet
150 0 m 1
 1 0 l 1
 205.015625 355.854492188 l 1
 18 688 l 1
 172 688 l 1
 301.1953125 449.426757812 l 1
 432 688 l 1
 580 688 l 1
 389.020507812 357.194335938 l 1
 593 0 l 1
 440 0 l 1
 292.840820312 263.62109375 l 1
 150 0 l 1
EndSplineSet
EndChar

StartChar: S
Encoding: 83 83 24
Width: 505
VWidth: 0
Flags: HW
LayerCount: 2
Fore
SplineSet
463 667 m 1
 432 542 l 1
 379.265625 568.270507812 325.497070312 578 280 578 c 3
 211 578 168 555 168 502 c 3
 168 461.482421875 189.313476562 446.421875 258 418 c 2
 316 394 l 2
 426.170898438 348.412109375 485 305 485 195 c 3
 485 61 392 -11 241 -11 c 3
 162.838867188 -11 91.0146484375 8.4990234375 42 39 c 1
 42 174 l 1
 100 132.286132812 180.6953125 107 250 107 c 3
 315 107 352 131.29296875 352 190 c 3
 352 231.033203125 321.325195312 246.48828125 249 277 c 2
 185 304 l 2
 103.627929688 338.329101562 35 375.6328125 35 499 c 3
 35 622.00390625 133 699 289 699 c 3
 356.953125 699 424.905273438 685.423828125 463 667 c 1
EndSplineSet
EndChar

StartChar: K
Encoding: 75 75 25
Width: 593
VWidth: 0
Flags: HW
LayerCount: 2
Fore
SplineSet
186 413.916992188 m 1
 342 413.916992188 l 1
 601 0 l 1
 446 0 l 1
 186 413.916992188 l 1
121 413.916992188 m 1
 276 413.916992188 l 1
 276 291 l 1
 121 290.916992188 l 1
 121 413.916992188 l 1
192 291 m 1
 436 688 l 1
 585 688 l 1
 340 291 l 1
 192 291 l 1
60 0 m 1
 60 688 l 1
 194 688 l 1
 194 0 l 1
 60 0 l 1
EndSplineSet
EndChar

StartChar: J
Encoding: 74 74 26
Width: 476
VWidth: 0
Flags: HW
LayerCount: 2
Fore
SplineSet
354 688 m 1
 354 564 l 1
 39 564 l 1
 71 688 l 1
 165.333007812 688 259.666992188 688 354 688 c 1
35 147 m 5
 76.4951171875 126.076171875 113.338867188 115 162 115 c 3
 240.080078125 115 284 149 284 228 c 2
 284 688 l 1
 418 688 l 1
 418 217 l 2
 418 65 334.424804688 -9 176 -9 c 3
 125.143554688 -9 64.1728515625 1.73046875 35 22 c 1
 35 147 l 5
EndSplineSet
EndChar

StartChar: Odieresis
Encoding: 214 214 27
Width: 778
VWidth: 0
Flags: HW
LayerCount: 2
Fore
SplineSet
439 652 m 1
 439 820 l 1
 583 820 l 1
 583 652 l 1
 439 652 l 1
195 652 m 1
 195 820 l 1
 339 820 l 1
 339 652 l 1
 195 652 l 1
EndSplineSet
Refer: 13 79 N 1 0 0 1 -5 0 2
EndChar

StartChar: o
Encoding: 111 111 28
Width: 572
VWidth: 0
Flags: HW
LayerCount: 2
Fore
SplineSet
286 518 m 7
 456.931640625 518 555 402 555 252 c 7
 555 101 456.931640625 -15 286 -15 c 7
 115.068359375 -15 17 101 17 252 c 7
 17 402 115.068359375 518 286 518 c 7
286 404 m 7
 194.461914062 404 146 336.106445312 146 252 c 7
 146 167.900390625 194.461914062 99 286 99 c 7
 377.538085938 99 426 167.900390625 426 252 c 7
 426 336.106445312 377.538085938 404 286 404 c 7
EndSplineSet
EndChar

StartChar: i
Encoding: 105 105 29
Width: 229
VWidth: 0
Flags: HW
LayerCount: 2
Fore
SplineSet
50 566 m 5
 50 688 l 1
 179 688 l 1
 179 566 l 5
 50 566 l 5
50 0 m 1
 50 503 l 1
 179 503 l 1
 179 0 l 1
 50 0 l 1
EndSplineSet
EndChar

StartChar: hyphen
Encoding: 45 45 30
Width: 389
VWidth: 0
Flags: HW
LayerCount: 2
Fore
SplineSet
359 363 m 5
 359 239 l 5
 18 239 l 5
 50 363 l 5
 359 363 l 5
EndSplineSet
EndChar

StartChar: l
Encoding: 108 108 31
Width: 229
VWidth: 0
Flags: HW
LayerCount: 2
Fore
SplineSet
50 0 m 1
 50 688 l 5
 179 688 l 5
 179 0 l 1
 50 0 l 1
EndSplineSet
EndChar

StartChar: n
Encoding: 110 110 32
Width: 536
VWidth: 0
Flags: HW
LayerCount: 2
Fore
SplineSet
50 0 m 1
 50 503 l 1
 175 503 l 5
 176 360 l 1
 179 360 l 1
 179 0 l 1
 50 0 l 1
162 358 m 1
 162 450.981445312 219.5859375 512 325 512 c 3
 430.52734375 512 492 442.806640625 492 338 c 2
 492 0 l 1
 363 0 l 1
 363 298 l 2
 363 355.795898438 334.674804688 394 276 394 c 3
 214.6328125 394 179 356.756835938 179 288 c 1
 162 358 l 1
EndSplineSet
EndChar

StartChar: h
Encoding: 104 104 33
Width: 536
VWidth: 0
Flags: HW
LayerCount: 2
Fore
SplineSet
50 0 m 1
 50 688 l 1
 179 688 l 1
 179 0 l 1
 50 0 l 1
162 358 m 1
 162 450.981445312 219.5859375 512 325 512 c 3
 430.52734375 512 492 442.806640625 492 338 c 2
 492 0 l 1
 363 0 l 1
 363 298 l 6
 363 355.795898438 334.674804688 394 276 394 c 3
 214.6328125 394 179 356.756835938 179 288 c 1
 162 358 l 1
EndSplineSet
EndChar

StartChar: a
Encoding: 97 97 34
Width: 486
VWidth: 0
Flags: HW
LayerCount: 2
Fore
SplineSet
315 315 m 5
 315 365.769623162 282.022443182 399 203 399 c 7
 140.818181818 399 86.7647625812 380.052631579 51 363 c 5
 82 483 l 5
 120.5 502.35483871 165.416666667 513 236 513 c 7
 370.766419654 513 442 443.4 442 339 c 5
 315 315 l 5
442 339 m 5
 442 0 l 5
 319 0 l 5
 318 143 l 5
 315 143 l 5
 315 315 l 5
 442 339 l 5
149 159 m 7
 149 122 176.713867188 100 221 100 c 7
 281.9296875 100 315 133.859375 315 197 c 5
 332 145 l 5
 332 52.3671875 273.215820312 -8 182 -8 c 7
 77.0458984375 -8 20 57 20 144 c 7
 20 279.619017687 145.295524697 297.181003516 247.7890625 306.006835938 c 6
 329 313 l 5
 329 223 l 5
 233.8515625 215.999023438 l 6
 183.975778571 212.32918709 149 194.909301622 149 159 c 7
EndSplineSet
EndChar

StartChar: u
Encoding: 117 117 35
Width: 532
VWidth: 0
Flags: HW
LayerCount: 2
Fore
SplineSet
482 503 m 1
 482 0 l 1
 357 0 l 5
 356 143 l 1
 353 143 l 1
 353 503 l 1
 482 503 l 1
370 145 m 1
 370 52.0185546875 313.12109375 -9 209 -9 c 3
 104.736328125 -9 44 60.5908203125 44 166 c 2
 44 503 l 1
 173 503 l 1
 173 205 l 2
 173 147.204101562 200.674804688 109 258 109 c 3
 318.1015625 109 353 146.243164062 353 215 c 1
 370 145 l 1
EndSplineSet
EndChar

StartChar: b
Encoding: 98 98 36
Width: 594
VWidth: 0
Flags: HW
LayerCount: 2
Fore
SplineSet
179 143 m 1
 179 202 l 1
 178 202 l 1
 178 302 l 1
 179 302 l 1
 179 688 l 1
 50 688 l 1
 50 0 l 1
 175 0 l 5
 176 143 l 1
 179 143 l 1
338 515 m 3
 220.592773438 515 147 429.221679688 147 322 c 1
 147 182 l 1
 147 74.71875 219.80859375 -12 338 -12 c 3
 488.045898438 -12 577 102.696289062 577 252 c 3
 577 400.30859375 488.045898438 515 338 515 c 3
313 401 m 3
 401.26953125 401 448 334.446289062 448 252 c 3
 448 169.549804688 401.26953125 102 313 102 c 3
 224.73046875 102 178 169.549804688 178 252 c 3
 178 334.446289062 224.73046875 401 313 401 c 3
EndSplineSet
EndChar

StartChar: d
Encoding: 100 100 37
Width: 594
VWidth: 0
Flags: HW
LayerCount: 2
Fore
SplineSet
415 143 m 1
 415 202 l 1
 416 202 l 1
 416 302 l 1
 415 302 l 1
 415 688 l 1
 544 688 l 1
 544 0 l 1
 419 0 l 5
 418 143 l 1
 415 143 l 1
261 515 m 3
 373.352539062 515 447 429.221679688 447 322 c 1
 447 182 l 17
 447 74.71875 374.13671875 -12 261 -12 c 3
 105.954101562 -12 17 102.696289062 17 252 c 3
 17 400.30859375 105.954101562 515 261 515 c 3
281 401 m 3
 192.73046875 401 146 334.446289062 146 252 c 3
 146 169.549804688 192.73046875 102 281 102 c 3
 369.26953125 102 416 169.549804688 416 252 c 3
 416 334.446289062 369.26953125 401 281 401 c 3
EndSplineSet
EndChar

StartChar: p
Encoding: 112 112 38
Width: 594
VWidth: 0
Flags: HW
LayerCount: 2
Fore
SplineSet
179 360 m 1
 179 301 l 1
 178 301 l 1
 178 201 l 1
 179 201 l 1
 179 -155 l 1
 50 -155 l 1
 50 503 l 1
 175 503 l 5
 176 360 l 1
 179 360 l 1
338 -12 m 3
 220.647460938 -12 147 73.7783203125 147 181 c 1
 147 321 l 1
 147 428.28125 219.86328125 515 339 515 c 3
 488.045898438 515 577 400.303710938 577 251 c 3
 577 102.69140625 488.045898438 -12 338 -12 c 3
313 102 m 3
 401.26953125 102 448 168.553710938 448 251 c 3
 448 333.450195312 401.26953125 401 313 401 c 3
 224.73046875 401 178 333.450195312 178 251 c 3
 178 168.553710938 224.73046875 102 313 102 c 3
EndSplineSet
EndChar

StartChar: q
Encoding: 113 113 39
Width: 594
VWidth: 0
Flags: HW
LayerCount: 2
Fore
SplineSet
415 360 m 1
 415 301 l 1
 416 301 l 1
 416 201 l 1
 415 201 l 1
 415 -155 l 1
 544 -155 l 1
 544 503 l 1
 419 503 l 5
 418 360 l 1
 415 360 l 1
256 -12 m 3
 373.352539062 -12 447 73.7783203125 447 181 c 1
 447 322 l 1
 447 428.727539062 374.13671875 515 256 515 c 3
 105.954101562 515 17 400.303710938 17 251 c 3
 17 102.69140625 105.954101562 -12 256 -12 c 3
281 102 m 3
 192.73046875 102 146 168.553710938 146 251 c 3
 146 333.450195312 192.73046875 401 281 401 c 3
 369.26953125 401 416 333.450195312 416 251 c 3
 416 168.553710938 369.26953125 102 281 102 c 3
EndSplineSet
EndChar

StartChar: t
Encoding: 116 116 40
Width: 333
VWidth: 0
Flags: HWO
LayerCount: 2
Fore
SplineSet
303 393 m 1
 -11 393 l 1
 -11 418 l 1
 167 612 l 5
 167 503 l 5
 323 503 l 1
 303 393 l 1
66 145 m 2
 66 433 l 1
 167 612 l 5
 195 612 l 1
 195 175 l 2
 195 124 210.757871686 108 265 108 c 3
 281 108 299.888888889 111.222183839 316 117 c 1
 316 7 l 1
 300.106520433 -0.800211588542 262 -6 235 -6 c 3
 121.309090909 -6 66 37 66 145 c 2
EndSplineSet
EndChar

StartChar: e
Encoding: 101 101 41
Width: 534
VWidth: 0
Flags: HW
LayerCount: 2
Fore
SplineSet
87 297 m 5
 447 297 l 5
 447 205 l 1
 87 205 l 1
 87 297 l 5
483 25 m 1
 442 0.857421875 375 -14 300 -14 c 3
 120 -14 17 91.6025390625 17 252 c 3
 17 397.436523438 111 517 275 517 c 3
 426.366210938 517 514 408.4453125 514 273 c 3
 514 249.34765625 513.25 227.666992188 511 205 c 1
 381 205 l 1
 384 226.685546875 386 249.357421875 386 274 c 3
 386 347.439453125 350 405 273 405 c 3
 191 405 146 344.3984375 146 253 c 3
 146 164 193 99 314 99 c 3
 364 99 431.225585938 114.063476562 483 143 c 1
 483 25 l 1
EndSplineSet
EndChar

StartChar: s
Encoding: 115 115 42
Width: 416
VWidth: 0
Flags: HW
LayerCount: 2
Fore
SplineSet
381 490 m 1
 352 379 l 1
 312 399.25 274 406 234 406 c 3
 178 406 157 392 157 369 c 3
 157 348.405273438 164.869818584 338.683722529 204.420898438 322.404296875 c 2
 271 295 l 2
 350.73991318 262.178646117 399 226.896294136 399 142 c 3
 399 42 325 -14 197 -14 c 3
 135.212890625 -14 75.451171875 2 40 24 c 1
 40 143 l 1
 92 111.354166667 150 94 205 94 c 3
 256 94 273 108.35 273 135 c 3
 273 154.771949836 258.873247232 167.771576309 221.310546875 183.375976562 c 2
 150 213 l 2
 91.2382181682 237.410980963 31 268.62890625 31 363 c 3
 31 458 111 517 241 517 c 3
 296 517 351 505.119553786 381 490 c 1
EndSplineSet
EndChar

StartChar: c
Encoding: 99 99 43
Width: 464
VWidth: 0
Flags: HW
LayerCount: 2
Fore
SplineSet
417 382 m 5
 392 388.579101562 359 397 305 397 c 7
 237.829101562 397 146 365.248274294 146 252 c 7
 146 143.887695312 230.637695312 100 311 100 c 3
 356.759765625 100 411.879882812 111 441 124 c 1
 441 8 l 1
 416.083984375 -2.4765625 366.251953125 -14 305 -14 c 3
 176.7734375 -14 17 48.380859375 17 248 c 7
 17 464.290509124 195.962890625 515 319 515 c 7
 378.239257812 515 425.842773438 503.75 447 497 c 5
 417 382 l 5
EndSplineSet
EndChar

StartChar: r
Encoding: 114 114 44
Width: 364
VWidth: 0
Flags: HW
LayerCount: 2
Fore
SplineSet
50 0 m 1
 50 503 l 1
 175 503 l 5
 176 360 l 1
 179 360 l 1
 179 260.85546875 179 117.888671875 179 0 c 1
 50 0 l 1
335 359 m 1
 312.545454545 367.968531469 293.636363636 374 270 374 c 3
 217.421875 374 179 338.235301907 179 262 c 1
 162 319 l 1
 162 434.321029663 215 510 298 510 c 3
 320.4375 510 346 505 369 492 c 1
 335 359 l 1
EndSplineSet
EndChar

StartChar: v
Encoding: 118 118 45
Width: 493
VWidth: 0
Flags: HW
LayerCount: 2
Fore
SplineSet
331 0 m 5
 210 0 l 5
 352 503 l 1
 483 503 l 1
 331 0 l 5
162 0 m 5
 10 503 l 1
 146 503 l 1
 290 0 l 5
 162 0 l 5
EndSplineSet
EndChar

StartChar: m
Encoding: 109 109 46
Width: 809
VWidth: 0
Flags: HW
LayerCount: 2
Fore
SplineSet
433 321 m 1
 433 435.11328125 494.119140625 510 606 510 c 3
 706.471679688 510 765 443.192382812 765 342 c 2
 765 0 l 1
 636 0 l 1
 636 302 l 2
 636 356.786132812 610.930664062 393 559 393 c 3
 503.958984375 393 472 357.513671875 472 292 c 1
 433 321 l 1
50 0 m 1
 50 503 l 1
 175 503 l 5
 176 360 l 1
 179 360 l 1
 179 0 l 1
 50 0 l 1
162 357 m 1
 162 449.377929688 215.346679688 510 313 510 c 3
 413.471679688 510 472 443.192382812 472 342 c 2
 472 0 l 1
 343 0 l 1
 343 302 l 2
 343 356.786132812 317.930664062 393 266 393 c 3
 210.958984375 393 179 357.513671875 179 292 c 1
 162 357 l 1
EndSplineSet
EndChar

StartChar: f
Encoding: 102 102 47
Width: 330
VWidth: 0
Flags: HW
LayerCount: 2
Fore
SplineSet
12 503 m 1
 332 503 l 1
 312 393 l 1
 -8 393 l 1
 12 503 l 1
66 534 m 2
 66 666.994140625 176.23046875 700 270 700 c 3
 297.53164557 700 329.988132911 694.545898438 345 688 c 5
 325 581 l 5
 313.857142857 584.490234375 291.571428571 588 273 588 c 3
 228 588 195 574.162109375 195 525 c 2
 195 0 l 1
 66 0 l 1
 66 534 l 2
EndSplineSet
EndChar

StartChar: g
Encoding: 103 103 48
Width: 590
VWidth: 0
Flags: HW
LayerCount: 2
Fore
SplineSet
411 360 m 1
 411 317 l 1
 412 317 l 1
 412 217 l 1
 411 217 l 1
 411 61 l 2
 411 -27.7521367521 344.451804137 -57 256 -57 c 3
 202.910845269 -57 128.914078776 -41.9808508832 77 -8 c 1
 77 -126 l 1
 119.238901203 -152.578837627 196.999769575 -165 254 -165 c 3
 448.282604257 -165 540 -79.2672413793 540 69 c 2
 540 503 l 1
 415 503 l 5
 414 360 l 1
 411 360 l 1
254 20 m 3
 370.123869243 20 443 105.778320312 443 213 c 1
 443 322 l 1
 443 428.727539062 370.900035979 515 254 515 c 3
 105.209837841 515 17 407.254769076 17 267 c 3
 17 127.71430034 105.209837841 20 254 20 c 3
279 134 m 3
 192.038610658 134 146 193.406847598 146 267 c 3
 146 340.65541088 192.038610658 401 279 401 c 3
 365.961389342 401 412 340.65541088 412 267 c 3
 412 193.406847598 365.961389342 134 279 134 c 3
EndSplineSet
EndChar

StartChar: j
Encoding: 106 106 49
Width: 536
VWidth: 0
Flags: HW
LayerCount: 2
Fore
SplineSet
50 0 m 1
 50 503 l 1
 175 503 l 1
 176 360 l 1
 179 360 l 1
 179 0 l 1
 50 0 l 1
162 358 m 1
 162 450.981445312 219.5859375 512 325 512 c 7
 430.52734375 512 492 442.806640625 492 338 c 2
 492 0 l 1
 363 0 l 1
 363 298 l 2
 363 355.795898438 334.674804688 394 276 394 c 7
 214.6328125 394 179 356.756835938 179 288 c 1
 162 358 l 1
EndSplineSet
EndChar

StartChar: k
Encoding: 107 107 50
Width: 536
VWidth: 0
Flags: HW
LayerCount: 2
Fore
SplineSet
50 0 m 1
 50 503 l 1
 175 503 l 1
 176 360 l 1
 179 360 l 1
 179 0 l 1
 50 0 l 1
162 358 m 1
 162 450.981445312 219.5859375 512 325 512 c 7
 430.52734375 512 492 442.806640625 492 338 c 2
 492 0 l 1
 363 0 l 1
 363 298 l 2
 363 355.795898438 334.674804688 394 276 394 c 7
 214.6328125 394 179 356.756835938 179 288 c 1
 162 358 l 1
EndSplineSet
EndChar

StartChar: w
Encoding: 119 119 51
Width: 536
VWidth: 0
Flags: HW
LayerCount: 2
Fore
SplineSet
50 0 m 1
 50 503 l 1
 175 503 l 1
 176 360 l 1
 179 360 l 1
 179 0 l 1
 50 0 l 1
162 358 m 1
 162 450.981445312 219.5859375 512 325 512 c 7
 430.52734375 512 492 442.806640625 492 338 c 2
 492 0 l 1
 363 0 l 1
 363 298 l 2
 363 355.795898438 334.674804688 394 276 394 c 7
 214.6328125 394 179 356.756835938 179 288 c 1
 162 358 l 1
EndSplineSet
EndChar

StartChar: x
Encoding: 120 120 52
Width: 536
VWidth: 0
Flags: HW
LayerCount: 2
Fore
SplineSet
50 0 m 1
 50 503 l 1
 175 503 l 1
 176 360 l 1
 179 360 l 1
 179 0 l 1
 50 0 l 1
162 358 m 1
 162 450.981445312 219.5859375 512 325 512 c 7
 430.52734375 512 492 442.806640625 492 338 c 2
 492 0 l 1
 363 0 l 1
 363 298 l 2
 363 355.795898438 334.674804688 394 276 394 c 7
 214.6328125 394 179 356.756835938 179 288 c 1
 162 358 l 1
EndSplineSet
EndChar

StartChar: y
Encoding: 121 121 53
Width: 536
VWidth: 0
Flags: HW
LayerCount: 2
Fore
SplineSet
50 0 m 1
 50 503 l 1
 175 503 l 1
 176 360 l 1
 179 360 l 1
 179 0 l 1
 50 0 l 1
162 358 m 1
 162 450.981445312 219.5859375 512 325 512 c 7
 430.52734375 512 492 442.806640625 492 338 c 2
 492 0 l 1
 363 0 l 1
 363 298 l 2
 363 355.795898438 334.674804688 394 276 394 c 7
 214.6328125 394 179 356.756835938 179 288 c 1
 162 358 l 1
EndSplineSet
EndChar

StartChar: z
Encoding: 122 122 54
Width: 536
VWidth: 0
Flags: HW
LayerCount: 2
Fore
SplineSet
50 0 m 1
 50 503 l 1
 175 503 l 1
 176 360 l 1
 179 360 l 1
 179 0 l 1
 50 0 l 1
162 358 m 1
 162 450.981445312 219.5859375 512 325 512 c 7
 430.52734375 512 492 442.806640625 492 338 c 2
 492 0 l 1
 363 0 l 1
 363 298 l 2
 363 355.795898438 334.674804688 394 276 394 c 7
 214.6328125 394 179 356.756835938 179 288 c 1
 162 358 l 1
EndSplineSet
EndChar
